{"title":"Vicky Donor - 2012 - DVDScr - 720p - x264 - DrC - D!D","uid":7268797,"size":1769852686,"categoryP":"video","categoryS":"hd___movies","magnet":"?xt=urn:btih:3eb29b6c90c3a8a2352368e1483e53d20c688245&amp;dn=Vicky+Donor+-+2012+-+DVDScr+-+720p+-+x264+-+DrC+-+D%21D&amp;tr=udp%3A%2F%2Ftracker.openbittorrent.com%3A80&amp;tr=udp%3A%2F%2Fopen.demonii.com%3A1337&amp;tr=udp%3A%2F%2Ftracker.coppersurfer.tk%3A6969&amp;tr=udp%3A%2F%2Fexodus.desync.com%3A6969","seeders":0,"leechers":0,"uploader":"DiD.DrC","files":1,"time":1336984604,"description":"Vicky Donor - 2012 - DVDScr - 720p - x264 - DrC - D!D\n\nScreenshots :\n &lt;a href=&quot;\nhttp://i.imgur.com/wseSj.png&quot; rel=&quot;nofollow&quot; target=&quot;_NEW&quot;&gt;\nhttp://i.imgur.com/wseSj.png&lt;/a&gt; &lt;a href=&quot;\nhttp://i.imgur.com/c8PNx.png&quot; rel=&quot;nofollow&quot; target=&quot;_NEW&quot;&gt;\nhttp://i.imgur.com/c8PNx.png&lt;/a&gt; &lt;a href=&quot;\nhttp://i.imgur.com/VcHXJ.jpg&quot; rel=&quot;nofollow&quot; target=&quot;_NEW&quot;&gt;\nhttp://i.imgur.com/VcHXJ.jpg&lt;/a&gt; &lt;a href=&quot;\nhttp://i.imgur.com/fpCvG.jpg&quot; rel=&quot;nofollow&quot; target=&quot;_NEW&quot;&gt;\nhttp://i.imgur.com/fpCvG.jpg&lt;/a&gt; &lt;a href=&quot;\nhttp://i.imgur.com/vLzJH.png&quot; rel=&quot;nofollow&quot; target=&quot;_NEW&quot;&gt;\nhttp://i.imgur.com/vLzJH.png&lt;/a&gt; &lt;a href=&quot;\nhttp://i.imgur.com/lpGAS.jpg&quot; rel=&quot;nofollow&quot; target=&quot;_NEW&quot;&gt;\nhttp://i.imgur.com/lpGAS.jpg&lt;/a&gt;\n\nInfo :\n\n        General\n\n        Format                                   : Matroska\n        Format version                           : Version 2\n        File size                                : 1.65 GiB\n        Duration                                 : 2h 1mn\n        Overall bit rate mode                    : Variable\n        Overall bit rate                         : 1 949 Kbps\n\n\n        Video\n\n        Format                                   : AVC\n        Format/Info                              : Advanced Video Codec\n        Format profile                           : &lt;a class=&quot;__cf_email__&quot; href=&quot;/cdn-cgi/l/email-protection&quot; data-cfemail=&quot;145c7d737c5458203a25&quot;&gt;[email&amp;#160;protected]&lt;/a&gt;&lt;script cf-hash='f9e31' type=&quot;text/javascript&quot;&gt;\n/* &lt;![CDATA[ */!function(){try{var t=&quot;currentScript&quot;in document?document.currentScript:function(){for(var t=document.getElementsByTagName(&quot;script&quot;),e=t.length;e--;)if(t[e].getAttribute(&quot;cf-hash&quot;))return t[e]}();if(t&amp;&amp;t.previousSibling){var e,r,n,i,c=t.previousSibling,a=c.getAttribute(&quot;data-cfemail&quot;);if(a){for(e=&quot;&quot;,r=parseInt(a.substr(0,2),16),n=2;a.length-n;n+=2)i=parseInt(a.substr(n,2),16)^r,e+=String.fromCharCode(i);e=document.createTextNode(e),c.parentNode.replaceChild(e,c)}}}catch(u){}}();/* ]]&gt; */&lt;/script&gt;\n        Format settings, CABAC                   : Yes\n        Format settings, ReFrames                : 3 frames\n        Codec ID                                 : V_MPEG4/ISO/AVC\n        Duration                                 : 2h 1mn\n        Bit rate mode                            : Variable\n        Bit rate                                 : 1 499 Kbps\n        Maximum bit rate                         : 40.0 Mbps\n        Width                                    : 1 280 pixels\n        Height                                   : 544 pixels\n        Display aspect ratio                     : 2.35:1\n        Frame rate                               : 23.976 fps\n        Color space                              : YUV\n        Chroma subsampling                       : 4:2:0\n        Bit depth                                : 8 bits\n        Scan type                                : Progressive\n        Bits/(Pixel*Frame)                       : 0.090\n        Stream size                              : 1.24 GiB (75%)\n\n\n        Audio\n\n        Format                                   : AC-3\n        Format/Info                              : Audio Coding 3\n        Mode extension                           : CM (complete main)\n        Format settings, Endianness              : Big\n        Codec ID                                 : A_AC3\n        Duration                                 : 2h 1mn\n        Bit rate mode                            : Constant\n        Bit rate                                 : 448 Kbps\n        Channel(s)                               : 6 channels\n        Channel positions                        : Front: L C R, Side: L R, LFE\n        Sampling rate                            : 48.0 KHz\n        Bit depth                                : 16 bits\n        Compression mode                         : Lossy\n        Stream size                              : 388 MiB (23%)\n\n\n      \n\n\n\n\n\n\n\n\n\n\n\n\n\n\n\n\n            \n\n","torrent":{"xt":"urn:btih:3eb29b6c90c3a8a2352368e1483e53d20c688245","amp;dn":"Vicky+Donor+-+2012+-+DVDScr+-+720p+-+x264+-+DrC+-+D%21D","amp;tr":["udp%3A%2F%2Ftracker.openbittorrent.com%3A80","udp%3A%2F%2Fopen.demonii.com%3A1337","udp%3A%2F%2Ftracker.coppersurfer.tk%3A6969","udp%3A%2F%2Fexodus.desync.com%3A6969"],"infoHash":"3eb29b6c90c3a8a2352368e1483e53d20c688245","infoHashBuffer":{"type":"Buffer","data":[62,178,155,108,144,195,168,162,53,35,104,225,72,62,83,210,12,104,130,69]},"announce":[],"urlList":[]}}